<svg width="1512" height="738" viewBox="0 0 1512 738" fill="none" xmlns="http://www.w3.org/2000/svg">
<g opacity="0.2">
<path d="M0 0V738" stroke="black" stroke-opacity="0.2"/>
<path d="M40.8647 0V738" stroke="black" stroke-opacity="0.2"/>
<path d="M81.7295 0V738" stroke="black" stroke-opacity="0.2"/>
<path d="M122.595 0V738" stroke="black" stroke-opacity="0.2"/>
<path d="M163.459 0V738" stroke="black" stroke-opacity="0.2"/>
<path d="M204.324 0V738" stroke="black" stroke-opacity="0.2"/>
<path d="M245.189 0V738" stroke="black" stroke-opacity="0.2"/>
<path d="M286.054 0V738" stroke="black" stroke-opacity="0.2"/>
<path d="M326.919 0V738" stroke="black" stroke-opacity="0.2"/>
<path d="M367.784 0V738" stroke="black" stroke-opacity="0.2"/>
<path d="M408.648 0V738" stroke="black" stroke-opacity="0.2"/>
<path d="M449.514 0V738" stroke="black" stroke-opacity="0.2"/>
<path d="M490.378 0V738" stroke="black" stroke-opacity="0.2"/>
<path d="M531.243 0V738" stroke="black" stroke-opacity="0.2"/>
<path d="M572.108 0V738" stroke="black" stroke-opacity="0.2"/>
<path d="M612.973 0V738" stroke="black" stroke-opacity="0.2"/>
<path d="M653.838 0V738" stroke="black" stroke-opacity="0.2"/>
<path d="M694.703 0V738" stroke="black" stroke-opacity="0.2"/>
<path d="M735.568 0V738" stroke="black" stroke-opacity="0.2"/>
<path d="M776.432 0V738" stroke="black" stroke-opacity="0.2"/>
<path d="M817.297 0V738" stroke="black" stroke-opacity="0.2"/>
<path d="M858.162 0V738" stroke="black" stroke-opacity="0.2"/>
<path d="M899.027 0V738" stroke="black" stroke-opacity="0.2"/>
<path d="M939.892 0V738" stroke="black" stroke-opacity="0.2"/>
<path d="M980.757 0V738" stroke="black" stroke-opacity="0.2"/>
<path d="M1021.62 0V738" stroke="black" stroke-opacity="0.2"/>
<path d="M1062.49 0V738" stroke="black" stroke-opacity="0.2"/>
<path d="M1103.35 0V738" stroke="black" stroke-opacity="0.2"/>
<path d="M1144.22 0V738" stroke="black" stroke-opacity="0.2"/>
<path d="M1185.08 0V738" stroke="black" stroke-opacity="0.2"/>
<path d="M1225.95 0V738" stroke="black" stroke-opacity="0.2"/>
<path d="M1266.81 0V738" stroke="black" stroke-opacity="0.2"/>
<path d="M1307.68 0V738" stroke="black" stroke-opacity="0.2"/>
<path d="M1348.54 0V738" stroke="black" stroke-opacity="0.2"/>
<path d="M1389.41 0V738" stroke="black" stroke-opacity="0.2"/>
<path d="M1430.27 0V738" stroke="black" stroke-opacity="0.2"/>
<path d="M1471.14 0V738" stroke="black" stroke-opacity="0.2"/>
<path d="M1512 0V738" stroke="black" stroke-opacity="0.2"/>
</g>
</svg>
